<?xml version="1.0" encoding="utf-8"?>
<!-- Generator: Adobe Illustrator 23.1.1, SVG Export Plug-In . SVG Version: 6.00 Build 0)  -->
<svg version="1.1" id="Camada_1" xmlns="http://www.w3.org/2000/svg" xmlns:xlink="http://www.w3.org/1999/xlink" x="0px" y="0px"
	 width="167.6px" height="64.3px" viewBox="0 0 167.6 64.3" style="enable-background:new 0 0 167.6 64.3;" xml:space="preserve">
<style type="text/css">
	.st0{fill:#005CA8;}
</style>
<title>logo_senai</title>
<g>
	<polygon class="st0" points="118.1,17.9 115.8,22.2 112.3,28.7 115.8,28.7 119.3,28.7 118.3,17.9 	"/>
	<g>
		<path class="st0" d="M154.5,13.8h-7.7v-1h7.7V13.8z M154.5,19.9h-7.7v-1h7.7V19.9z M154.5,26.2h-7.7v-1h7.7V26.2z M154.5,32.6
			h-7.7v-1h7.7V32.6z M154.5,38.7h-7.7v-1h7.7V38.7z M138.6,38.7h-7.2l5.5-25.9h7.2L138.6,38.7z M120.6,38.7l-0.6-5.1h-4.2h-6.4
			l-2.8,5.1h-5.7h-1.4l1.4-2.3l14.3-23.6h0.6h8.2l4.7,25.9H120.6z M86.9,38.7l-4.6-19.8h-0.1L78,38.7h-5.7h-0.7l0.7-3.4l4.8-22.5h10
			l4.6,19.3l0.1-0.1l4.1-19.2h5h1.4l-1.4,6.7l-4.1,19.2C96.8,38.7,86.9,38.7,86.9,38.7z M68.8,28.2H57.2L56,33.7h12.6l-1.1,5H47.8
			l5.5-25.9h19H73l-0.7,3.4L72,17.8H59.4l-1.1,5.3h11.6L68.8,28.2z M46.8,20.4h-7.2c0.2-1,0.1-1.8-0.4-2.3s-1.4-0.8-2.6-0.8
			c-1.7,0-3.3,1.1-3.6,2.4c-0.4,1.9,1.8,2.5,3.6,3c4.1,1.1,10.3,1.5,8.8,8.5c-1.2,5.5-7.1,8-13.1,8s-11-1.8-9.6-8.8h7.2
			c-0.6,2.4,1,3.8,3.5,3.8c1.7,0,4-0.9,4.3-2.6c0.7-3.5-4.7-2.8-9.8-5.2c-2.4-1.1-3.2-3.5-2.6-6.3c1.6-6.1,7.3-7.8,12.8-7.8
			C43.4,12.3,48.5,14.2,46.8,20.4 M12,7.5v5.3h7.7v1H12V19h7.7v1H12v5.3h7.7v1H12v5.4h7.7v1H12v5.2h7.7v1H12V44h142.5V7.5H12z"/>
	</g>
	<g>
		<path class="st0" d="M14.3,51.8h2.9c0.5,0,1.1,0,1.6,0.3s0.9,0.9,0.9,1.7c0,1.1-0.7,1.6-0.9,1.7c-0.5,0.3-1.2,0.3-1.6,0.3h-1.1
			v2.3h-1.8C14.3,58.1,14.3,51.8,14.3,51.8z M16.1,54.6h0.8c0.4,0,1.1,0,1.1-0.8S17.4,53,16.9,53h-0.8V54.6z"/>
		<path class="st0" d="M20.6,51.8h4.7V53h-3v1.3h2.8v1.2h-2.8v1.3h3.1V58h-4.8V51.8z"/>
		<path class="st0" d="M26.4,51.8h1.8v5.1H31v1.2h-4.6C26.4,58.1,26.4,51.8,26.4,51.8z"/>
		<path class="st0" d="M32.3,52.5c0.8-0.8,2-0.9,2.5-0.9c2.5,0,3.2,1.8,3.2,3.3c0,2.5-1.8,3.3-3.3,3.3c-1.7,0-3.2-0.9-3.2-3.3
			C31.5,54.5,31.5,53.3,32.3,52.5z M34.7,56.9c1.2,0,1.5-1.1,1.5-2s-0.2-1.3-0.4-1.6c-0.3-0.3-0.7-0.5-1-0.5c-1.1,0-1.5,1-1.5,2.1
			C33.2,55.9,33.5,56.9,34.7,56.9z"/>
		<path class="st0" d="M41.9,51.8h4.5V53h-2.7v1.5h2.5v1.2h-2.5v2.4h-1.8V51.8z"/>
		<path class="st0" d="M49,51.8v3.7c0,0.3,0,0.7,0.2,0.9c0.2,0.3,0.6,0.5,1.1,0.5c1.1,0,1.3-0.9,1.3-1.5v-3.7h1.7v3.6
			c0,0.7-0.1,1.5-0.5,1.9c-0.6,0.7-1.7,0.9-2.5,0.9c-3,0-3-1.8-3-2.9v-3.6H49V51.8z"/>
		<path class="st0" d="M55.8,53h-1.9v-1.2h5.6V53h-2v5h-1.8v-5H55.8z"/>
		<path class="st0" d="M62,51.8v3.7c0,0.3,0,0.7,0.2,0.9c0.2,0.3,0.6,0.5,1.1,0.5c1.1,0,1.3-0.9,1.3-1.5v-3.7h1.7v3.6
			c0,0.7-0.1,1.5-0.5,1.9c-0.6,0.7-1.7,0.9-2.5,0.9c-3,0-3-1.8-3-2.9v-3.6H62V51.8z"/>
		<path class="st0" d="M67.5,51.8h2.9c1.1,0,1.6,0.1,1.9,0.5c0.2,0.2,0.4,0.5,0.4,1.2s-0.3,1-0.6,1.2c-0.4,0.3-0.8,0.3-1,0.3l0,0
			c1.2,0,1.3,0.6,1.4,1.5c0.1,0.4,0.1,1.1,0.3,1.6h-1.9c-0.1-0.4-0.1-0.9-0.2-1.4c-0.1-0.8-0.1-1-0.9-1h-0.7v2.5h-1.8v-6.4H67.5z
			 M69.2,54.5h0.7c0.4,0,0.6,0,0.7-0.1c0.4-0.1,0.5-0.5,0.5-0.7c0-0.8-0.7-0.8-1.2-0.8h-0.7V54.5z"/>
		<path class="st0" d="M74.4,52.5c0.8-0.8,2-0.9,2.5-0.9c2.5,0,3.2,1.8,3.2,3.3c0,2.5-1.8,3.3-3.3,3.3c-1.7,0-3.2-0.9-3.2-3.3
			C73.5,54.5,73.6,53.3,74.4,52.5z M76.8,56.9c1.2,0,1.5-1.1,1.5-2s-0.2-1.3-0.4-1.6c-0.3-0.3-0.7-0.5-1-0.5c-1.1,0-1.5,1-1.5,2.1
			C75.3,55.9,75.6,56.9,76.8,56.9z"/>
		<path class="st0" d="M84,51.8h2.7c0.7,0,1.7,0.1,2.4,0.5c0.9,0.6,1.2,1.7,1.2,2.6c0,1.4-0.4,2.4-1.7,2.9C88,58,87.2,58,86.8,58
			h-2.7L84,51.8L84,51.8z M85.8,56.9h0.7c1.2,0,1.9-0.5,1.9-2c0-1.9-1.4-1.9-2-1.9h-0.7L85.8,56.9L85.8,56.9z"/>
		<path class="st0" d="M91.8,52.5c0.8-0.8,2-0.9,2.5-0.9c2.5,0,3.2,1.8,3.2,3.3c0,2.5-1.8,3.3-3.3,3.3c-1.7,0-3.2-0.9-3.2-3.3
			C91,54.5,91,53.3,91.8,52.5z M94.2,56.9c1.2,0,1.5-1.1,1.5-2s-0.2-1.3-0.4-1.6c-0.3-0.3-0.7-0.5-1-0.5c-1.1,0-1.5,1-1.5,2.1
			C92.8,55.9,93.1,56.9,94.2,56.9z"/>
		<path class="st0" d="M102.8,53h-1.9v-1.2h5.6V53h-2v5h-1.8L102.8,53L102.8,53z"/>
		<path class="st0" d="M107.1,51.8h2.9c1.1,0,1.6,0.1,1.9,0.5c0.2,0.2,0.4,0.5,0.4,1.2s-0.3,1-0.6,1.2c-0.4,0.3-0.8,0.3-1,0.3l0,0
			c1.2,0,1.3,0.6,1.4,1.5c0.1,0.4,0.1,1.1,0.3,1.6h-1.9c-0.1-0.4-0.1-0.9-0.2-1.4c-0.1-0.8-0.1-1-0.9-1h-0.5v2.5h-1.8V51.8z
			 M108.9,54.5h0.7c0.4,0,0.6,0,0.7-0.1c0.4-0.1,0.5-0.5,0.5-0.7c0-0.8-0.7-0.8-1.2-0.8h-0.7V54.5z"/>
		<path class="st0" d="M115.4,51.8h2.1l2.5,6.3h-2l-0.4-1.3h-2.5l-0.4,1.3h-1.8L115.4,51.8z M117.2,55.6l-0.8-2.6l0,0l-0.9,2.6
			H117.2z"/>
		<path class="st0" d="M120.7,51.8h2.5c0.8,0,1.6,0,2.2,0.5c0.2,0.2,0.5,0.5,0.5,1.1c0,1.1-1,1.4-1.3,1.4l0,0
			c0.4,0.1,1.5,0.3,1.5,1.6c0,0.5-0.2,1.1-0.9,1.4c-0.5,0.3-1.1,0.3-1.7,0.3h-2.8V51.8z M122.3,54.3h0.8c0.3,0,0.5,0,0.6-0.1
			c0.2-0.1,0.3-0.3,0.3-0.6c0-0.2-0.1-0.4-0.2-0.6c-0.2-0.1-0.4-0.1-0.6-0.1h-0.9L122.3,54.3L122.3,54.3z M122.4,56.9h1
			c0.2,0,0.9,0,0.9-0.7c0-0.8-0.7-0.8-0.9-0.8h-0.9v1.5H122.4z"/>
		<path class="st0" d="M129,51.8h2.1l2.5,6.3h-2l-0.4-1.3h-2.5l-0.4,1.3h-1.7L129,51.8z M130.8,55.6L130,53l0,0l-0.9,2.6H130.8z"/>
		<path class="st0" d="M134.3,51.8h1.8v5.1h2.8v1.2h-4.6V51.8z"/>
		<path class="st0" d="M139.6,51.8h1.8v2.5h2.1v-2.5h1.8v6.3h-1.8v-2.5h-2.1v2.5h-1.8V51.8z"/>
		<path class="st0" d="M147,52.5c0.8-0.8,2-0.9,2.5-0.9c2.5,0,3.2,1.8,3.2,3.3c0,2.5-1.8,3.3-3.3,3.3c-1.7,0-3.2-0.9-3.2-3.3
			C146.1,54.5,146.2,53.3,147,52.5z M149.4,56.9c1.2,0,1.5-1.1,1.5-2s-0.2-1.3-0.4-1.6c-0.3-0.3-0.7-0.5-1-0.5c-1.1,0-1.5,1-1.5,2.1
			C147.9,55.9,148.2,56.9,149.4,56.9z"/>
	</g>
</g>
</svg>
